<svg width="40" height="40" viewBox="0 0 40 40" fill="none" xmlns="http://www.w3.org/2000/svg">
<path d="M30.0381 12.3812C29.0714 11.1105 27.8858 10.0648 26.5542 9.26828C26.4934 9.2318 26.4144 9.24396 26.3597 9.2926C26.2867 9.36556 26.305 9.48108 26.384 9.5358C28.8525 11.1348 30.7555 13.7128 31.1994 17.154C32.1114 24.146 27.2291 29.9828 20.3587 30.0011C12.8074 30.0254 8.21089 23.3496 9.41473 17.3547C9.47553 17.0568 9.44513 16.7649 9.54241 16.4792C9.59713 15.4273 9.99841 13.7736 10.8618 12.0833C9.99233 12.5332 8.88577 13.956 8.33857 15.2692C7.54817 17.1662 7.27457 19.434 7.52385 21.5924C7.54209 21.7566 7.56033 21.9147 7.57857 22.0788C8.59393 28.0251 13.7741 32.5486 20.0061 32.5364C26.9494 32.5243 32.6038 26.8273 32.5674 19.8779C32.5552 17.0689 31.6128 14.4728 30.0381 12.3812Z" fill="url(#paint0_radial)"/>
<path opacity="0.67" d="M30.0381 12.3812C29.0714 11.1105 27.8858 10.0648 26.5542 9.26828C26.4934 9.2318 26.4144 9.24396 26.3597 9.2926C26.2867 9.36556 26.305 9.48108 26.384 9.5358C28.8525 11.1348 30.7555 13.7128 31.1994 17.154C32.1114 24.146 27.2291 29.9828 20.3587 30.0011C12.8074 30.0254 8.21089 23.3496 9.41473 17.3547C9.47553 17.0568 9.44513 16.7649 9.54241 16.4792C9.59713 15.4273 9.99841 13.7736 10.8618 12.0833C9.99233 12.5332 8.88577 13.956 8.33857 15.2692C7.54817 17.1662 7.27457 19.434 7.52385 21.5924C7.54209 21.7566 7.56033 21.9147 7.57857 22.0788C8.59393 28.0251 13.7741 32.5486 20.0061 32.5364C26.9494 32.5243 32.6038 26.8273 32.5674 19.8779C32.5552 17.0689 31.6128 14.4728 30.0381 12.3812Z" fill="url(#paint1_radial)"/>
<path d="M30.0381 12.3812C29.0714 11.1105 27.8858 10.0648 26.5542 9.26828C26.4934 9.2318 26.4144 9.24396 26.3597 9.2926C26.2867 9.36556 26.305 9.48108 26.384 9.5358C28.8525 11.1348 30.7555 13.7128 31.1994 17.154C32.1114 24.146 27.2291 29.9828 20.3587 30.0011C12.8074 30.0254 8.21089 23.3496 9.41473 17.3547C9.47553 17.0568 9.44513 16.7649 9.54241 16.4792C9.59713 15.4273 9.99841 13.7736 10.8618 12.0833C9.99233 12.5332 8.88577 13.956 8.33857 15.2692C7.54817 17.1662 7.27457 19.434 7.52385 21.5924C7.54209 21.7566 7.56033 21.9147 7.57857 22.0788C8.59393 28.0251 13.7741 32.5486 20.0061 32.5364C26.9494 32.5243 32.6038 26.8273 32.5674 19.8779C32.5552 17.0689 31.6128 14.4728 30.0381 12.3812Z" fill="url(#paint2_radial)"/>
<path d="M30.0381 12.3812C29.0714 11.1105 27.8858 10.0648 26.5542 9.26828C26.4934 9.2318 26.4144 9.24396 26.3597 9.2926C26.2867 9.36556 26.305 9.48108 26.384 9.5358C28.8525 11.1348 30.7555 13.7128 31.1994 17.154C32.1114 24.146 27.2291 29.9828 20.3587 30.0011C12.8074 30.0254 8.21089 23.3496 9.41473 17.3547C9.47553 17.0568 9.44513 16.7649 9.54241 16.4792C9.59713 15.4273 9.99841 13.7736 10.8618 12.0833C9.99233 12.5332 8.88577 13.956 8.33857 15.2692C7.54817 17.1662 7.27457 19.434 7.52385 21.5924C7.54209 21.7566 7.56033 21.9147 7.57857 22.0788C8.59393 28.0251 13.7741 32.5486 20.0061 32.5364C26.9494 32.5243 32.6038 26.8273 32.5674 19.8779C32.5552 17.0689 31.6128 14.4728 30.0381 12.3812Z" fill="url(#paint3_radial)"/>
<path d="M30.0381 12.3812C29.0714 11.1105 27.8858 10.0648 26.5542 9.26828C26.4934 9.2318 26.4144 9.24396 26.3597 9.2926C26.2867 9.36556 26.305 9.48108 26.384 9.5358C28.8525 11.1348 30.7555 13.7128 31.1994 17.154C32.1114 24.146 27.2291 29.9828 20.3587 30.0011C12.8074 30.0254 8.21089 23.3496 9.41473 17.3547C9.47553 17.0568 9.44513 16.7649 9.54241 16.4792C9.59713 15.4273 9.99841 13.7736 10.8618 12.0833C9.99233 12.5332 8.88577 13.956 8.33857 15.2692C7.54817 17.1662 7.27457 19.434 7.52385 21.5924C7.54209 21.7566 7.56033 21.9147 7.57857 22.0788C8.59393 28.0251 13.7741 32.5486 20.0061 32.5364C26.9494 32.5243 32.6038 26.8273 32.5674 19.8779C32.5552 17.0689 31.6128 14.4728 30.0381 12.3812Z" fill="url(#paint4_radial)"/>
<path d="M31.5095 16.8081C31.1021 13.1479 29.0471 10.649 26.4205 9.18984C25.9828 8.94664 25.4295 9.05 25.1133 9.43912L25.1072 9.4452C28.0986 11.2874 29.9834 14.5524 30.0807 17.9572C30.1962 22.0977 26.7975 25.3991 22.882 25.5876C20.0365 25.7274 17.3552 24.3534 16.042 21.5991C15.7501 20.985 15.5373 20.3649 15.4279 19.611C14.8077 15.4279 17.6228 11.859 20.2068 10.9713C18.8144 9.75528 15.3184 9.8404 12.7223 11.7495C10.8496 13.1236 9.63365 15.2151 9.23237 17.7079C8.92837 19.611 9.21413 21.587 9.96805 23.3502C10.7341 25.1498 11.9805 26.7367 13.5552 27.9041C15.2576 29.1748 17.3127 29.9105 19.4285 30.0686C19.7386 30.0929 20.0548 30.105 20.3648 30.105C28.6762 30.1172 32.2877 23.8183 31.5095 16.8081Z" fill="url(#paint5_radial)"/>
<path d="M31.5095 16.8081C31.1021 13.1479 29.0471 10.649 26.4205 9.18984C25.9828 8.94664 25.4295 9.05 25.1133 9.43912L25.1072 9.4452C28.0986 11.2874 29.9834 14.5524 30.0807 17.9572C30.1962 22.0977 26.7975 25.3991 22.882 25.5876C20.0365 25.7274 17.3552 24.3534 16.042 21.5991C15.7501 20.985 15.5373 20.3649 15.4279 19.611C14.8077 15.4279 17.6228 11.859 20.2068 10.9713C18.8144 9.75528 15.3184 9.8404 12.7223 11.7495C10.8496 13.1236 9.63365 15.2151 9.23237 17.7079C8.92837 19.611 9.21413 21.587 9.96805 23.3502C10.7341 25.1498 11.9805 26.7367 13.5552 27.9041C15.2576 29.1748 17.3127 29.9105 19.4285 30.0686C19.7386 30.0929 20.0548 30.105 20.3648 30.105C28.6762 30.1172 32.2877 23.8183 31.5095 16.8081Z" fill="url(#paint6_radial)"/>
<path opacity="0.53" d="M31.5095 16.8081C31.1021 13.1479 29.0471 10.649 26.4205 9.18984C25.9828 8.94664 25.4295 9.05 25.1133 9.43912L25.1072 9.4452C28.0986 11.2874 29.9834 14.5524 30.0807 17.9572C30.1962 22.0977 26.7975 25.3991 22.882 25.5876C20.0365 25.7274 17.3552 24.3534 16.042 21.5991C15.7501 20.985 15.5373 20.3649 15.4279 19.611C14.8077 15.4279 17.6228 11.859 20.2068 10.9713C18.8144 9.75528 15.3184 9.8404 12.7223 11.7495C10.8496 13.1236 9.63365 15.2151 9.23237 17.7079C8.92837 19.611 9.21413 21.587 9.96805 23.3502C10.7341 25.1498 11.9805 26.7367 13.5552 27.9041C15.2576 29.1748 17.3127 29.9105 19.4285 30.0686C19.7386 30.0929 20.0548 30.105 20.3648 30.105C28.6762 30.1172 32.2877 23.8183 31.5095 16.8081Z" fill="url(#paint7_radial)"/>
<path opacity="0.53" d="M31.5095 16.8081C31.1021 13.1479 29.0471 10.649 26.4205 9.18984C25.9828 8.94664 25.4295 9.05 25.1133 9.43912L25.1072 9.4452C28.0986 11.2874 29.9834 14.5524 30.0807 17.9572C30.1962 22.0977 26.7975 25.3991 22.882 25.5876C20.0365 25.7274 17.3552 24.3534 16.042 21.5991C15.7501 20.985 15.5373 20.3649 15.4279 19.611C14.8077 15.4279 17.6228 11.859 20.2068 10.9713C18.8144 9.75528 15.3184 9.8404 12.7223 11.7495C10.8496 13.1236 9.63365 15.2151 9.23237 17.7079C8.92837 19.611 9.21413 21.587 9.96805 23.3502C10.7341 25.1498 11.9805 26.7367 13.5552 27.9041C15.2576 29.1748 17.3127 29.9105 19.4285 30.0686C19.7386 30.0929 20.0548 30.105 20.3648 30.105C28.6762 30.1172 32.2877 23.8183 31.5095 16.8081Z" fill="url(#paint8_radial)"/>
<path d="M25.1255 9.42681C25.1194 9.43289 25.1194 9.43897 25.1133 9.44505C24.7546 9.88889 24.8276 10.5334 25.2653 10.8982C27.1501 12.4425 28.4148 14.6374 28.4148 17.1727C28.4148 20.6748 25.7031 23.3439 22.5293 23.1555C17.8113 22.8697 16.6257 18.0483 19.0759 15.9628C18.4132 15.823 17.1729 16.0966 16.3034 17.3916C15.5252 18.5529 15.5677 20.3404 16.0481 21.6111C17.3613 24.3593 20.0426 25.7699 22.8881 25.5996C28.2628 25.2713 30.561 20.839 30.7069 17.6835C30.865 14.2604 30.0929 11.2265 26.4327 9.18361C25.9889 8.93433 25.4417 9.03769 25.1255 9.42681Z" fill="url(#paint9_radial)"/>
<path d="M30.0382 12.382C29.7038 11.9381 29.3329 11.5247 28.9438 11.1356C28.6337 10.8072 28.2993 10.5032 27.9467 10.2175C28.1473 10.3938 28.3418 10.5823 28.5303 10.7768C29.2113 11.5125 29.7524 12.382 30.0625 13.3304C30.7191 15.3125 30.6766 17.7992 29.4241 19.7448C27.9284 22.0674 25.4964 23.2165 22.8699 23.1618C22.7543 23.1618 22.6449 23.1618 22.5294 23.1557C17.8113 22.87 16.6257 18.0485 19.0759 15.9631C18.4132 15.8232 17.1729 16.0968 16.3034 17.3919C15.5252 18.5532 15.5678 20.3407 16.0481 21.6114C15.7562 20.9973 15.5434 20.3772 15.434 19.6232C14.8138 15.4402 17.6289 11.8712 20.2129 10.9836C18.8206 9.76756 15.3246 9.85268 12.7284 11.7618C11.2145 12.8744 10.1323 14.4552 9.56073 16.34C9.64585 15.2821 10.0471 13.7074 10.8679 12.0901C9.99849 12.54 8.89193 13.9628 8.34473 15.276C7.55433 17.173 7.28073 19.4408 7.53001 21.5992C7.54825 21.7634 7.56649 21.9215 7.58473 22.0856C8.59401 28.0197 13.7681 32.5432 19.9879 32.5432C26.9374 32.5432 32.5735 26.9071 32.5735 19.9576C32.5674 17.1122 31.625 14.4917 30.0382 12.382Z" fill="url(#paint10_linear)"/>
<path d="M30.0623 13.3303C29.7462 12.3818 29.2111 11.5124 28.5302 10.7767C27.071 9.20804 24.9247 8.20484 22.8575 7.74884C21.1186 7.3658 19.2946 7.37188 17.653 7.71844C15.8655 8.0954 14.2969 8.86756 13.3058 9.8282C16.735 7.8218 21.3558 8.19268 24.5174 10.4423C25.0463 10.8192 25.5388 11.2509 25.9827 11.7252C28.0863 13.993 28.9436 17.7808 27.1743 20.5047C26.2867 21.8848 24.3775 23.1738 22.5961 23.1616C25.326 23.3076 27.8735 22.1524 29.4179 19.7508C30.6764 17.7991 30.719 15.3124 30.0623 13.3303Z" fill="url(#paint11_linear)"/>
<path d="M30.0623 13.3303C29.7462 12.3818 29.2111 11.5124 28.5302 10.7767C27.071 9.20804 24.9247 8.20484 22.8575 7.74884C21.1186 7.3658 19.2946 7.37188 17.653 7.71844C15.8655 8.0954 14.2969 8.86756 13.3058 9.8282C16.735 7.8218 21.3558 8.19268 24.5174 10.4423C25.0463 10.8192 25.5388 11.2509 25.9827 11.7252C28.0863 13.993 28.9436 17.7808 27.1743 20.5047C26.2867 21.8848 24.3775 23.1738 22.5961 23.1616C25.326 23.3076 27.8735 22.1524 29.4179 19.7508C30.6764 17.7991 30.719 15.3124 30.0623 13.3303Z" fill="url(#paint12_linear)"/>
<defs>
<radialGradient id="paint0_radial" cx="0" cy="0" r="1" gradientUnits="userSpaceOnUse" gradientTransform="translate(29.9079 12.3027) scale(28.3986)">
<stop stop-color="#FFF44F"/>
<stop offset="0.2949" stop-color="#FF980E"/>
<stop offset="0.4315" stop-color="#FF5D36"/>
<stop offset="0.5302" stop-color="#FF3750"/>
<stop offset="0.7493" stop-color="#F5156C"/>
<stop offset="0.7648" stop-color="#F1136E"/>
<stop offset="0.8801" stop-color="#DA057A"/>
<stop offset="0.9528" stop-color="#D2007F"/>
</radialGradient>
<radialGradient id="paint1_radial" cx="0" cy="0" r="1" gradientUnits="userSpaceOnUse" gradientTransform="translate(9.51415 14.7543) scale(16.402)">
<stop stop-color="#B5007F"/>
<stop offset="1" stop-color="#F5156C" stop-opacity="0"/>
</radialGradient>
<radialGradient id="paint2_radial" cx="0" cy="0" r="1" gradientUnits="userSpaceOnUse" gradientTransform="translate(32.3463 12.1508) scale(31.1113)">
<stop stop-color="#FFDD00" stop-opacity="0.6"/>
<stop offset="0.0836672" stop-color="#FFD801" stop-opacity="0.5244"/>
<stop offset="0.1822" stop-color="#FECA05" stop-opacity="0.4353"/>
<stop offset="0.2884" stop-color="#FEB20C" stop-opacity="0.3394"/>
<stop offset="0.3998" stop-color="#FD9115" stop-opacity="0.2388"/>
<stop offset="0.5154" stop-color="#FB6621" stop-opacity="0.1343"/>
<stop offset="0.6329" stop-color="#F9332F" stop-opacity="0.028164"/>
<stop offset="0.664" stop-color="#F92433" stop-opacity="0"/>
</radialGradient>
<radialGradient id="paint3_radial" cx="0" cy="0" r="1" gradientUnits="userSpaceOnUse" gradientTransform="translate(20.718 22.2054) scale(41.7994)">
<stop offset="0.1528" stop-color="#960E18"/>
<stop offset="0.2061" stop-color="#CC2335" stop-opacity="0.5541"/>
<stop offset="0.2495" stop-color="#F13148" stop-opacity="0.1914"/>
<stop offset="0.2724" stop-color="#FF3750" stop-opacity="0"/>
</radialGradient>
<radialGradient id="paint4_radial" cx="0" cy="0" r="1" gradientUnits="userSpaceOnUse" gradientTransform="translate(17.4479 21.7007) scale(42.0905)">
<stop offset="0.1129" stop-color="#960E18"/>
<stop offset="0.1893" stop-color="#CC2335" stop-opacity="0.5541"/>
<stop offset="0.2515" stop-color="#F13148" stop-opacity="0.1914"/>
<stop offset="0.2843" stop-color="#FF3750" stop-opacity="0"/>
</radialGradient>
<radialGradient id="paint5_radial" cx="0" cy="0" r="1" gradientUnits="userSpaceOnUse" gradientTransform="translate(29.3073 11.4807) scale(26.4495)">
<stop stop-color="#FF980E"/>
<stop offset="0.295" stop-color="#FF7139"/>
<stop offset="0.4846" stop-color="#FF5B51"/>
<stop offset="0.626" stop-color="#FF4F5E"/>
<stop offset="0.7365" stop-color="#FF4055"/>
<stop offset="0.8428" stop-color="#FF3750"/>
</radialGradient>
<radialGradient id="paint6_radial" cx="0" cy="0" r="1" gradientUnits="userSpaceOnUse" gradientTransform="translate(29.3073 12.4529) scale(25.0911)">
<stop offset="0.0840745" stop-color="#FFDE08"/>
<stop offset="0.2081" stop-color="#FFD609" stop-opacity="0.832"/>
<stop offset="0.4033" stop-color="#FFBF0B" stop-opacity="0.5677"/>
<stop offset="0.6437" stop-color="#FF9B0F" stop-opacity="0.242"/>
<stop offset="0.8224" stop-color="#FF7B12" stop-opacity="0"/>
</radialGradient>
<radialGradient id="paint7_radial" cx="0" cy="0" r="1" gradientUnits="userSpaceOnUse" gradientTransform="translate(23.121 20.2502) rotate(75.6841) scale(12.6294 13.1799)">
<stop offset="0.3634" stop-color="#FF3750"/>
<stop offset="0.4111" stop-color="#FF444B" stop-opacity="0.7895"/>
<stop offset="0.5902" stop-color="#FF7139" stop-opacity="0"/>
</radialGradient>
<radialGradient id="paint8_radial" cx="0" cy="0" r="1" gradientUnits="userSpaceOnUse" gradientTransform="translate(20.8576 21.2915) rotate(75.6841) scale(12.7737 12.7847)">
<stop offset="0.2159" stop-color="#FF3750" stop-opacity="0.8"/>
<stop offset="0.2702" stop-color="#FF444B" stop-opacity="0.6316"/>
<stop offset="0.4739" stop-color="#FF7139" stop-opacity="0"/>
</radialGradient>
<radialGradient id="paint9_radial" cx="0" cy="0" r="1" gradientUnits="userSpaceOnUse" gradientTransform="translate(34.6595 8.42816) scale(44.7484)">
<stop offset="0.0535657" stop-color="#FFF44F"/>
<stop offset="0.4573" stop-color="#FF980E"/>
<stop offset="0.5211" stop-color="#FF8424"/>
<stop offset="0.5871" stop-color="#FF7634"/>
<stop offset="0.6393" stop-color="#FF7139"/>
</radialGradient>
<linearGradient id="paint10_linear" x1="25.9769" y1="9.67331" x2="13.1476" y2="31.8942" gradientUnits="userSpaceOnUse">
<stop stop-color="#FFF44F" stop-opacity="0.8"/>
<stop offset="0.75" stop-color="#FFF44F" stop-opacity="0"/>
</linearGradient>
<linearGradient id="paint11_linear" x1="21.8923" y1="23.2352" x2="21.8923" y2="7.6199" gradientUnits="userSpaceOnUse">
<stop stop-color="#3A8EE6"/>
<stop offset="0.1016" stop-color="#4D82EB"/>
<stop offset="0.3885" stop-color="#7D65FA"/>
<stop offset="0.5309" stop-color="#9059FF"/>
<stop offset="0.6915" stop-color="#9D50F8"/>
<stop offset="0.9888" stop-color="#C03AE7"/>
<stop offset="1" stop-color="#C139E6"/>
</linearGradient>
<linearGradient id="paint12_linear" x1="19.1461" y1="7.05216" x2="27.6652" y2="21.8077" gradientUnits="userSpaceOnUse">
<stop offset="0.8054" stop-color="#9059FF" stop-opacity="0"/>
<stop offset="1" stop-color="#6E008B" stop-opacity="0.5"/>
</linearGradient>
</defs>
</svg>
