<svg width="25" height="25" viewBox="0 0 25 25" fill="none" xmlns="http://www.w3.org/2000/svg">
<g clip-path="url(#clip0)">
<path d="M18.4406 16.9086C18.2273 17.0202 18.0073 17.1185 17.7818 17.203C17.0643 17.4715 16.3042 17.6083 15.5381 17.6068C12.5806 17.6068 10.0043 15.5724 10.0043 12.9618C10.0081 12.6116 10.1053 12.2688 10.2858 11.9688C10.4663 11.6687 10.7236 11.4223 11.0312 11.2549C8.3562 11.3674 7.6687 14.1549 7.6687 15.788C7.6687 20.4055 11.9243 20.8736 12.8412 20.8736C13.3356 20.8736 14.0812 20.7299 14.5287 20.5886L14.6106 20.5611C16.3326 19.9658 17.8006 18.802 18.7731 17.2611C18.8029 17.2142 18.8162 17.1587 18.8109 17.1034C18.8056 17.048 18.782 16.9961 18.7439 16.9556C18.7057 16.9152 18.6552 16.8886 18.6003 16.8801C18.5454 16.8716 18.4892 16.8816 18.4406 16.9086Z" fill="url(#paint0_linear)"/>
<path opacity="0.35" d="M18.4406 16.9086C18.2273 17.0202 18.0073 17.1185 17.7818 17.203C17.0643 17.4715 16.3042 17.6083 15.5381 17.6068C12.5806 17.6068 10.0043 15.5724 10.0043 12.9618C10.0081 12.6116 10.1053 12.2688 10.2858 11.9688C10.4663 11.6687 10.7236 11.4223 11.0312 11.2549C8.3562 11.3674 7.6687 14.1549 7.6687 15.788C7.6687 20.4055 11.9243 20.8736 12.8412 20.8736C13.3356 20.8736 14.0812 20.7299 14.5287 20.5886L14.6106 20.5611C16.3326 19.9658 17.8006 18.802 18.7731 17.2611C18.8029 17.2142 18.8162 17.1587 18.8109 17.1034C18.8056 17.048 18.782 16.9961 18.7439 16.9556C18.7057 16.9152 18.6552 16.8886 18.6003 16.8801C18.5454 16.8716 18.4892 16.8816 18.4406 16.9086Z" fill="url(#paint1_radial)"/>
<path d="M10.6068 20.0883C10.0494 19.7423 9.56625 19.2889 9.18557 18.7546C8.75169 18.1601 8.45312 17.4779 8.3108 16.7559C8.16848 16.0338 8.18586 15.2894 8.36172 14.5747C8.53757 13.8601 8.86765 13.1926 9.3288 12.619C9.78995 12.0455 10.371 11.5798 11.0312 11.2546C11.2262 11.1627 11.5593 10.9964 12.0024 11.0046C12.3146 11.0068 12.6221 11.0814 12.9006 11.2223C13.1792 11.3633 13.4213 11.5669 13.6081 11.8171C13.8605 12.154 13.9996 12.5623 14.0056 12.9833C14.0056 12.9702 15.5343 8.0083 9.00557 8.0083C6.26182 8.0083 4.00558 10.6121 4.00558 12.8964C3.99475 14.1048 4.25331 15.3005 4.76245 16.3964C5.59453 18.1718 7.04961 19.5798 8.85138 20.353C10.6532 21.1262 12.6761 21.2108 14.5362 20.5908C13.8849 20.7962 13.1969 20.8578 12.5194 20.7715C11.842 20.6852 11.1914 20.4529 10.6124 20.0908L10.6068 20.0883Z" fill="url(#paint2_linear)"/>
<path opacity="0.41" d="M10.6068 20.0883C10.0494 19.7423 9.56625 19.2889 9.18557 18.7546C8.75169 18.1601 8.45312 17.4779 8.3108 16.7559C8.16848 16.0338 8.18586 15.2894 8.36172 14.5747C8.53757 13.8601 8.86765 13.1926 9.3288 12.619C9.78995 12.0455 10.371 11.5798 11.0312 11.2546C11.2262 11.1627 11.5593 10.9964 12.0024 11.0046C12.3146 11.0068 12.6221 11.0814 12.9006 11.2223C13.1792 11.3633 13.4213 11.5669 13.6081 11.8171C13.8605 12.154 13.9996 12.5623 14.0056 12.9833C14.0056 12.9702 15.5343 8.0083 9.00557 8.0083C6.26182 8.0083 4.00558 10.6121 4.00558 12.8964C3.99475 14.1048 4.25331 15.3005 4.76245 16.3964C5.59453 18.1718 7.04961 19.5798 8.85138 20.353C10.6532 21.1262 12.6761 21.2108 14.5362 20.5908C13.8849 20.7962 13.1969 20.8578 12.5194 20.7715C11.842 20.6851 11.1914 20.4529 10.6124 20.0908L10.6068 20.0883Z" fill="url(#paint3_radial)"/>
<path d="M13.5187 14.3038C13.468 14.3694 13.3124 14.46 13.3124 14.6575C13.3124 14.8206 13.4187 14.9775 13.6074 15.1094C14.5062 15.7344 16.2005 15.6519 16.2049 15.6519C16.8709 15.6503 17.5242 15.4701 18.0968 15.13C18.6744 14.7927 19.1538 14.3103 19.4874 13.7305C19.8211 13.1508 19.9973 12.4939 19.9987 11.825C20.0149 10.4244 19.4987 9.49312 19.2899 9.08063C17.9655 6.49 15.1068 5 11.998 5C9.89566 4.99979 7.8777 5.82719 6.3806 7.30323C4.8835 8.77928 4.02761 10.7853 3.99805 12.8875C4.02805 10.6037 6.29805 8.75938 8.99805 8.75938C9.2168 8.75938 10.4643 8.78063 11.623 9.38875C12.6443 9.925 13.1793 10.5725 13.5512 11.2144C13.9374 11.8812 14.0062 12.7237 14.0062 13.0594C14.0062 13.395 13.8349 13.8925 13.5187 14.3038Z" fill="url(#paint4_radial)"/>
<path d="M13.5187 14.3038C13.468 14.3694 13.3124 14.46 13.3124 14.6575C13.3124 14.8206 13.4187 14.9775 13.6074 15.1094C14.5062 15.7344 16.2005 15.6519 16.2049 15.6519C16.8709 15.6503 17.5242 15.4701 18.0968 15.13C18.6744 14.7927 19.1538 14.3103 19.4874 13.7305C19.8211 13.1508 19.9973 12.4939 19.9987 11.825C20.0149 10.4244 19.4987 9.49312 19.2899 9.08063C17.9655 6.49 15.1068 5 11.998 5C9.89566 4.99979 7.8777 5.82719 6.3806 7.30323C4.8835 8.77928 4.02761 10.7853 3.99805 12.8875C4.02805 10.6037 6.29805 8.75938 8.99805 8.75938C9.2168 8.75938 10.4643 8.78063 11.623 9.38875C12.6443 9.925 13.1793 10.5725 13.5512 11.2144C13.9374 11.8812 14.0062 12.7237 14.0062 13.0594C14.0062 13.395 13.8349 13.8925 13.5187 14.3038Z" fill="url(#paint5_radial)"/>
</g>
<defs>
<linearGradient id="paint0_linear" x1="7.6687" y1="16.0655" x2="18.815" y2="16.0655" gradientUnits="userSpaceOnUse">
<stop stop-color="#0C59A4"/>
<stop offset="1" stop-color="#114A8B"/>
</linearGradient>
<radialGradient id="paint1_radial" cx="0" cy="0" r="1" gradientUnits="userSpaceOnUse" gradientTransform="translate(13.825 16.1534) scale(5.96125 5.66319)">
<stop offset="0.72" stop-opacity="0"/>
<stop offset="0.95" stop-opacity="0.53"/>
<stop offset="1"/>
</radialGradient>
<linearGradient id="paint2_linear" x1="13.5449" y1="11.2302" x2="6.58307" y2="18.8133" gradientUnits="userSpaceOnUse">
<stop stop-color="#1B9DE2"/>
<stop offset="0.16" stop-color="#1595DF"/>
<stop offset="0.67" stop-color="#0680D7"/>
<stop offset="1" stop-color="#0078D4"/>
</linearGradient>
<radialGradient id="paint3_radial" cx="0" cy="0" r="1" gradientUnits="userSpaceOnUse" gradientTransform="translate(8.41086 17.4376) rotate(-81.3844) scale(8.96414 7.24212)">
<stop offset="0.76" stop-opacity="0"/>
<stop offset="0.95" stop-opacity="0.5"/>
<stop offset="1"/>
</radialGradient>
<radialGradient id="paint4_radial" cx="0" cy="0" r="1" gradientUnits="userSpaceOnUse" gradientTransform="translate(5.61445 7.96105) rotate(92.2906) scale(12.662 26.9674)">
<stop stop-color="#35C1F1"/>
<stop offset="0.11" stop-color="#34C1ED"/>
<stop offset="0.23" stop-color="#2FC2DF"/>
<stop offset="0.31" stop-color="#2BC3D2"/>
<stop offset="0.67" stop-color="#36C752"/>
</radialGradient>
<radialGradient id="paint5_radial" cx="0" cy="0" r="1" gradientUnits="userSpaceOnUse" gradientTransform="translate(19.0026 9.83788) rotate(73.7398) scale(6.08375 4.9473)">
<stop stop-color="#66EB6E"/>
<stop offset="1" stop-color="#66EB6E" stop-opacity="0"/>
</radialGradient>
<clipPath id="clip0">
<rect x="4" y="5" width="16" height="16" fill="white"/>
</clipPath>
</defs>
</svg>
